<mxfile host="65bd71144e" scale="1.2" border="0">
    <diagram name="Page-1" id="ahwWs56YI2XBYRBzwlqw">
        <mxGraphModel dx="648" dy="1187" grid="1" gridSize="10" guides="1" tooltips="1" connect="1" arrows="1" fold="1" page="0" pageScale="1" pageWidth="850" pageHeight="1100" math="0" shadow="0">
            <root>
                <mxCell id="0"/>
                <mxCell id="1" parent="0"/>
                <mxCell id="12" value="$STATEMACHINE :Â MySmName" style="shape=swimlane;rotatable=0;align=center;verticalAlign=top;fontFamily=Lucida Console;startSize=30;fontSize=14;fontStyle=1;swimlaneFillColor=#18141d;rounded=1;arcSize=15;absoluteArcSize=1;fillColor=#1ba1e2;fontColor=#ffffff;strokeColor=#006EAF;" parent="1" vertex="1">
                    <mxGeometry x="840" y="10" width="370" height="280" as="geometry"/>
                </mxCell>
                <mxCell id="13" value=" " style="fontFamily=Lucida Console;align=left;verticalAlign=top;fillColor=none;gradientColor=none;strokeColor=none;rounded=0;spacingLeft=4;resizable=0;movable=0;deletable=0;rotatable=0;autosize=1;" parent="12" connectable="0" vertex="1">
                    <mxGeometry y="30" width="30" height="20" as="geometry"/>
                </mxCell>
                <mxCell id="14" style="edgeStyle=none;html=1;strokeColor=#F0F0F0;" parent="12" source="15" target="16" edge="1">
                    <mxGeometry relative="1" as="geometry"/>
                </mxCell>
                <mxCell id="16" value="OFF" style="shape=swimlane;rotatable=0;align=center;verticalAlign=top;fontFamily=Lucida Console;startSize=30;fontSize=14;fontStyle=1;swimlaneFillColor=#18141d;html=1;rounded=1;arcSize=15;absoluteArcSize=1;fillColor=#333333;fontColor=#FAFAFA;strokeColor=#F0F0F0;" parent="12" vertex="1">
                    <mxGeometry x="30" y="100" width="310" height="60" as="geometry"/>
                </mxCell>
                <mxCell id="17" value="&lt;font color=&quot;#00aaff&quot;&gt;enter &lt;/font&gt;&lt;font color=&quot;#ffd700&quot;&gt;/&lt;/font&gt;&amp;nbsp;&lt;font color=&quot;#dcdcaa&quot;&gt;window.alert(&quot;Light is OFF&quot;);&lt;/font&gt;" style="fontFamily=Lucida Console;align=left;verticalAlign=top;fillColor=none;gradientColor=none;strokeColor=none;rounded=0;spacingLeft=4;resizable=0;movable=0;deletable=0;rotatable=0;autosize=1;html=1;" parent="16" connectable="0" vertex="1">
                    <mxGeometry y="30" width="290" height="30" as="geometry"/>
                </mxCell>
                <mxCell id="37" value="INCREASE" style="edgeStyle=none;html=1;exitX=0.25;exitY=1;exitDx=0;exitDy=0;entryX=0.25;entryY=0;entryDx=0;entryDy=0;fontColor=#00AAFF;labelBackgroundColor=#18141D;strokeColor=#F0F0F0;" parent="12" source="16" target="23" edge="1">
                    <mxGeometry x="-0.3333" y="-40" relative="1" as="geometry">
                        <mxPoint as="offset"/>
                    </mxGeometry>
                </mxCell>
                <mxCell id="15" value="$initial_state" style="shape=ellipse;aspect=fixed;fillColor=#000000;resizable=1;rotatable=1;noLabel=1;editable=1;movable=1;deletable=1;connectable=1;strokeColor=#F0F0F0;" parent="12" vertex="1">
                    <mxGeometry x="172.5" y="50" width="25" height="25" as="geometry"/>
                </mxCell>
                <mxCell id="32" value="DIM" style="edgeStyle=none;html=1;exitX=0.75;exitY=0;exitDx=0;exitDy=0;fontColor=#00AAFF;strokeColor=#F0F0F0;labelBackgroundColor=#18141D;entryX=0.75;entryY=1;entryDx=0;entryDy=0;" parent="12" source="23" target="16" edge="1">
                    <mxGeometry x="-0.3333" y="-20" relative="1" as="geometry">
                        <mxPoint as="offset"/>
                        <mxPoint x="195" y="250" as="sourcePoint"/>
                        <mxPoint x="270" y="170" as="targetPoint"/>
                    </mxGeometry>
                </mxCell>
                <mxCell id="23" value="ON1" style="shape=swimlane;rotatable=0;align=center;verticalAlign=top;fontFamily=Lucida Console;startSize=30;fontSize=14;fontStyle=1;swimlaneFillColor=#18141d;html=1;rounded=1;arcSize=15;absoluteArcSize=1;fillColor=#545454;fontColor=#ffffff;strokeColor=#F0F0F0;" parent="12" vertex="1">
                    <mxGeometry x="30" y="200" width="310" height="60" as="geometry"/>
                </mxCell>
                <mxCell id="24" value="&lt;font color=&quot;#00aaff&quot;&gt;enter&amp;nbsp;&lt;/font&gt;&lt;font color=&quot;#ffd700&quot;&gt;/&lt;/font&gt;&amp;nbsp;&lt;font color=&quot;#dcdcaa&quot;&gt;window.alert(&quot;Light is ON&quot;);&lt;/font&gt;" style="fontFamily=Lucida Console;align=left;verticalAlign=top;fillColor=none;gradientColor=none;strokeColor=none;rounded=0;spacingLeft=4;resizable=0;movable=0;deletable=0;rotatable=0;autosize=1;html=1;" parent="23" connectable="0" vertex="1">
                    <mxGeometry y="30" width="290" height="30" as="geometry"/>
                </mxCell>
                <mxCell id="57" value="&lt;b&gt;$NOTES&lt;/b&gt;&lt;br&gt;This example is super trivial to show just the basics." style="shape=rectangle;rounded=1;arcSize=15;absoluteArcSize=1;align=left;verticalAlign=top;whiteSpace=wrap;html=1;spacingLeft=4;strokeWidth=1;strokeColor=default;fillColor=#fff2cc;fontColor=#000000;gradientColor=#ffd966;" parent="1" vertex="1">
                    <mxGeometry x="840" y="-40" width="360" height="40" as="geometry"/>
                </mxCell>
            </root>
        </mxGraphModel>
    </diagram>
</mxfile>